<svg xmlns="http://www.w3.org/2000/svg" width="980" height="400" viewBox="0 0 980 400" font-family="Inter, Segoe UI, Arial, sans-serif">
<rect width="980" height="400" fill="#fcfcfb"/>
<title>Триггеры на движение</title>
<line x1="64.0" y1="339.1" x2="770.0" y2="339.1" stroke="#e1e0d9" stroke-width="1"/>
<text x="56.0" y="343.1" font-size="11" fill="#898781" text-anchor="end" font-weight="400">75</text>
<line x1="64.0" y1="270.0" x2="770.0" y2="270.0" stroke="#e1e0d9" stroke-width="1"/>
<text x="56.0" y="274.0" font-size="11" fill="#898781" text-anchor="end" font-weight="400">85</text>
<line x1="64.0" y1="201.0" x2="770.0" y2="201.0" stroke="#e1e0d9" stroke-width="1"/>
<text x="56.0" y="205.0" font-size="11" fill="#898781" text-anchor="end" font-weight="400">95</text>
<line x1="64.0" y1="132.0" x2="770.0" y2="132.0" stroke="#e1e0d9" stroke-width="1"/>
<text x="56.0" y="136.0" font-size="11" fill="#898781" text-anchor="end" font-weight="400">105</text>
<line x1="64.0" y1="62.9" x2="770.0" y2="62.9" stroke="#e1e0d9" stroke-width="1"/>
<text x="56.0" y="66.9" font-size="11" fill="#898781" text-anchor="end" font-weight="400">115</text>
<line x1="64.0" y1="106.9" x2="770.0" y2="106.9" stroke="#d03b3b" stroke-width="1.5"/>
<line x1="64.0" y1="169.2" x2="770.0" y2="169.2" stroke="#fab219" stroke-width="1.5"/>
<polyline points="64.0,163.9 84.2,183.6 104.3,190.5 124.5,185.0 144.7,185.6 164.9,125.7 185.0,175.3 205.2,189.6 225.4,223.5 245.5,241.4 265.7,240.0 285.9,239.5 306.1,265.1 326.2,234.2 346.4,231.8 366.6,265.0 386.7,261.3 406.9,290.8 427.1,303.9 447.3,314.2 467.4,253.1 487.6,232.3 507.8,244.4 527.9,234.1 548.1,224.3 568.3,234.6 588.5,237.0 608.6,262.2 628.8,262.1 649.0,195.1 669.1,239.3 689.3,249.9 709.5,213.0 729.7,177.5 749.8,160.6 770.0,156.1" fill="none" stroke="#c3c2b7" stroke-width="2"/>
<line x1="164.9" y1="56.0" x2="164.9" y2="346.0" stroke="#2a78d6" stroke-width="1.5" stroke-dasharray="3 3"/>
<circle cx="164.9" cy="125.7" r="5" fill="#2a78d6"/>
<text x="164.9" y="50.0" font-size="10" fill="#52514e" text-anchor="middle" font-weight="400">2024-01</text>
<text x="164.9" y="143.7" font-size="10" fill="#2a78d6" text-anchor="middle" font-weight="400">ΔЗайм +8.3</text>
<line x1="326.2" y1="56.0" x2="326.2" y2="346.0" stroke="#2a78d6" stroke-width="1.5" stroke-dasharray="3 3"/>
<circle cx="326.2" cy="234.2" r="5" fill="#2a78d6"/>
<text x="326.2" y="50.0" font-size="10" fill="#52514e" text-anchor="middle" font-weight="400">2024-09</text>
<text x="326.2" y="252.2" font-size="10" fill="#2a78d6" text-anchor="middle" font-weight="400">ΔЗайм +6.1</text>
<line x1="467.4" y1="56.0" x2="467.4" y2="346.0" stroke="#2a78d6" stroke-width="1.5" stroke-dasharray="3 3"/>
<circle cx="467.4" cy="253.1" r="5" fill="#2a78d6"/>
<text x="467.4" y="50.0" font-size="10" fill="#52514e" text-anchor="middle" font-weight="400">2025-04</text>
<text x="467.4" y="271.1" font-size="10" fill="#2a78d6" text-anchor="middle" font-weight="400">ΔСК -3.2</text>
<line x1="649.0" y1="56.0" x2="649.0" y2="346.0" stroke="#2a78d6" stroke-width="1.5" stroke-dasharray="3 3"/>
<circle cx="649.0" cy="195.1" r="5" fill="#2a78d6"/>
<text x="649.0" y="50.0" font-size="10" fill="#52514e" text-anchor="middle" font-weight="400">2026-01</text>
<text x="649.0" y="213.1" font-size="10" fill="#2a78d6" text-anchor="middle" font-weight="400">ΔСК -7.9</text>
<line x1="709.5" y1="56.0" x2="709.5" y2="346.0" stroke="#2a78d6" stroke-width="1.5" stroke-dasharray="3 3"/>
<circle cx="709.5" cy="213.0" r="5" fill="#2a78d6"/>
<text x="709.5" y="50.0" font-size="10" fill="#52514e" text-anchor="middle" font-weight="400">2026-04</text>
<text x="709.5" y="231.0" font-size="10" fill="#2a78d6" text-anchor="middle" font-weight="400">ΔЗайм +5.4</text>
<line x1="729.7" y1="56.0" x2="729.7" y2="346.0" stroke="#2a78d6" stroke-width="1.5" stroke-dasharray="3 3"/>
<circle cx="729.7" cy="177.5" r="5" fill="#2a78d6"/>
<text x="729.7" y="50.0" font-size="10" fill="#52514e" text-anchor="middle" font-weight="400">2026-05</text>
<text x="729.7" y="195.5" font-size="10" fill="#2a78d6" text-anchor="middle" font-weight="400">ΔЗайм +5.6</text>
<text x="788.0" y="60.0" font-size="12" fill="#0b0b0b" text-anchor="start" font-weight="600">Триггеры на движение</text>
<text x="788.0" y="82.0" font-size="11" fill="#898781" text-anchor="start" font-weight="400">ΔСК ≤ −3 % или ΔЗайм ≥ +5 %</text>
<text x="788.0" y="99.0" font-size="11" fill="#898781" text-anchor="start" font-weight="400">за месяц — независимо от зоны.</text>
<text x="788.0" y="116.0" font-size="11" fill="#898781" text-anchor="start" font-weight="400"></text>
<text x="788.0" y="133.0" font-size="11" fill="#898781" text-anchor="start" font-weight="400">Сработали 6 раза из 35.</text>
<text x="788.0" y="150.0" font-size="11" fill="#898781" text-anchor="start" font-weight="400"></text>
<text x="788.0" y="167.0" font-size="11" fill="#898781" text-anchor="start" font-weight="400">Январь 2026 уровневой зоной</text>
<text x="788.0" y="184.0" font-size="11" fill="#898781" text-anchor="start" font-weight="400">не предупреждался в принципе:</text>
<text x="788.0" y="201.0" font-size="11" fill="#898781" text-anchor="start" font-weight="400">вход сделан капиталом.</text>
<text x="64.0" y="26.0" font-size="15" fill="#0b0b0b" text-anchor="start" font-weight="600">Триггеры на движение: шесть срабатываний на 35 приростах</text>
<text x="64.0" y="43.0" font-size="11" fill="#898781" text-anchor="start" font-weight="400">Уровневая зона не видит быстрый вход; триггер по движению видит</text>
</svg>